<mxfile host="app.diagrams.net" modified="2023-04-19T09:24:13.685Z" agent="Mozilla/5.0 (Windows NT 10.0; WOW64) AppleWebKit/537.36 (KHTML, like Gecko) Chrome/86.0.4240.198 Safari/537.36" version="21.1.9" etag="4T5ruGVVDBoFX42YQfN2" type="github">
  <diagram name="第 1 页" id="Ny-fWcfSBNeX-ucE5aCP">
    <mxGraphModel>
      <root>
        <mxCell id="0" />
        <mxCell id="1" parent="0" />
      </root>
    </mxGraphModel>
  </diagram>
</mxfile>
